<?xml version="1.0" encoding="UTF-8"?>
<svg version="1.1" xmlns="http://www.w3.org/2000/svg" width="128" height="128">
<path d="M0 0 C3.06208885 -0.30092942 4.48545375 -0.41937611 6.921875 1.56640625 C7.52515625 2.22511719 8.1284375 2.88382812 8.75 3.5625 C11.54877953 6.25368446 11.54877953 6.25368446 15.1640625 7.2421875 C16.66523253 7.03531248 18.15999262 6.77671838 19.64453125 6.47265625 C22.17196811 5.9654923 24.48681139 5.87105561 27.0625 5.875 C27.89652344 5.87371094 28.73054688 5.87242187 29.58984375 5.87109375 C31.88733016 5.9939739 33.89165519 6.417406 36.125 6.9375 C40.61189119 7.00986921 41.05021308 6.48281568 44.1875 3.5625 C44.79980469 2.90378906 45.41210938 2.24507813 46.04296875 1.56640625 C48.50438999 -0.40371334 49.9263599 -0.30258633 53 0 C53.45894807 1.52064794 53.91712214 3.04152948 54.375 4.5625 C54.65730469 5.4803125 54.93960938 6.398125 55.23046875 7.34375 C56 10 56 10 56.6875 13.5625 C58.02144321 17.05616078 59.22725498 18.51635821 61.75 21.1875 C70.45288419 30.49167437 74.37796913 41.9104379 74.22265625 54.53515625 C73.95433223 57.50555023 73.30057533 60.33176143 72.6875 63.25 C71.57828651 69.80583418 73.04823621 73.95651635 75.68359375 79.9453125 C79.92845022 89.79539487 80.85561492 101.91942813 76.9921875 112.01953125 C75.39714861 115.20332935 73.52043234 117.47956766 71 120 C70.34 120 69.68 120 69 120 C68.71125 120.78375 68.4225 121.5675 68.125 122.375 C67 125 67 125 65 127 C62.42578125 127.16015625 62.42578125 127.16015625 59.3125 127.0625 C56.02043658 126.96628976 53.0203167 126.99693497 49.75854492 127.48901367 C43.91886637 128.28293684 38.07933224 128.2244951 32.19677734 128.24023438 C30.03312412 128.24985275 27.87045889 128.28089549 25.70703125 128.3125 C13.26369588 128.40814419 0.9579424 127.56313234 -9.8515625 120.79296875 C-12.0606843 119.73169761 -12.0606843 119.73169761 -14.60546875 120.79296875 C-15.39566406 121.19128906 -16.18585937 121.58960937 -17 122 C-23.18681275 124.58982859 -29.25702635 125.16798162 -35.69140625 123.16015625 C-40.70739224 120.93996573 -44.58556465 118.41755209 -47.2265625 113.51953125 C-48.86580766 108.17956597 -48.81153957 102.49141773 -48 97 C-46.65625 94.609375 -46.65625 94.609375 -45 93 C-42 92.5 -42 92.5 -39 93 C-36.74524897 95.2495317 -36.03560608 96.48890445 -35.8125 99.69140625 C-35.874375 100.63886719 -35.93625 101.58632812 -36 102.5625 C-36.37452213 106.47349681 -36.37452213 106.47349681 -34.625 109.77734375 C-31.36517349 112.23004975 -29.04665779 112.31738492 -25 112 C-22.22407121 111.09634665 -22.22407121 111.09634665 -20 109 C-19.55398597 106.2285611 -19.40085051 103.95636881 -19.4375 101.1875 C-19.27344181 92.87581269 -17.68623856 85.90201844 -15 78 C-13.78029396 74.34088189 -14.36057117 73.56118679 -15.875 70.125 C-20.75647817 58.96245902 -20.28665443 46.42064377 -16.33984375 35.015625 C-13.86722141 29.45042253 -10.5881686 24.1671726 -5.88671875 20.23046875 C-3.24308505 17.10517922 -2.88542135 13.80460778 -2.3125 9.875 C-1.07519531 2.15039062 -1.07519531 2.15039062 0 0 Z " fill="#6289C7" transform="translate(48,0)"/>
<path d="M0 0 C9.41256045 5.90873084 14.82324377 12.99316881 18.30859375 23.44921875 C19.20170258 35.5281496 18.08374465 44.29563027 10.12109375 53.76171875 C3.25874842 60.96378414 -3.66898833 64.46777127 -13.58056641 64.79248047 C-21.75909091 64.90857658 -27.82507356 64.35004755 -34.69140625 59.44921875 C-35.34496094 58.99160156 -35.99851562 58.53398438 -36.671875 58.0625 C-43.29909023 52.90485915 -46.76176751 46.55199383 -48.69140625 38.44921875 C-49.48363927 28.83953513 -49.6642602 19.8028817 -43.76953125 11.859375 C-39.36423155 6.68694552 -34.82371844 2.44059055 -28.69140625 -0.55078125 C-27.94761719 -0.91429688 -27.20382813 -1.2778125 -26.4375 -1.65234375 C-18.45205404 -4.26493631 -7.55784629 -3.63235446 0 0 Z " fill="#F8A758" transform="translate(90.69140625,21.55078125)"/>
<path d="M0 0 C3.63195496 1.21065165 4.42896192 2.53691126 6.6875 5.5625 C7.31011719 6.38878906 7.93273438 7.21507813 8.57421875 8.06640625 C9.04472656 8.70449219 9.51523437 9.34257813 10 10 C13.73487777 9.5020163 15.81237635 9.12508244 19 7 C21.6875 7.375 21.6875 7.375 24 8 C23.54177532 11.46941546 23.10868317 14.67395049 22 18 C29.50904592 20.76983244 36.16305217 21.38502924 44.125 21.1875 C45.176875 21.17396484 46.22875 21.16042969 47.3125 21.14648438 C49.87555954 21.11153356 52.43748913 21.06247682 55 21 C56.97856902 24.64621461 58.95398726 28.29411626 60.92651367 31.94360352 C61.59785166 33.18463039 62.27004566 34.4251946 62.94311523 35.6652832 C63.91095309 37.44881908 64.87569059 39.2340014 65.83984375 41.01953125 C66.42113037 42.09307861 67.00241699 43.16662598 67.60131836 44.27270508 C69 47 69 47 70 50 C62.03288789 52.09964472 54.16380231 52.34076403 45.97045898 52.31567383 C43.83329364 52.31253058 41.69754053 52.33599022 39.56054688 52.36132812 C27.18810052 52.41934068 14.88596239 51.51805013 4.1484375 44.79296875 C1.9393157 43.73169761 1.9393157 43.73169761 -0.60546875 44.79296875 C-1.39566406 45.19128906 -2.18585937 45.58960938 -3 46 C-9.18681275 48.58982859 -15.25702635 49.16798162 -21.69140625 47.16015625 C-26.70739224 44.93996573 -30.58556465 42.41755209 -33.2265625 37.51953125 C-34.86580766 32.17956597 -34.81153957 26.49141773 -34 21 C-32.65625 18.609375 -32.65625 18.609375 -31 17 C-28 16.5 -28 16.5 -25 17 C-22.74524897 19.2495317 -22.03560608 20.48890445 -21.8125 23.69140625 C-21.874375 24.63886719 -21.93625 25.58632812 -22 26.5625 C-22.37452213 30.47349681 -22.37452213 30.47349681 -20.625 33.77734375 C-17.36517349 36.23004975 -15.04665779 36.31738492 -11 36 C-8.22407121 35.09634665 -8.22407121 35.09634665 -6 33 C-5.55399172 30.22859684 -5.40084687 27.95633823 -5.4375 25.1875 C-5.26440845 16.42662189 -3.97605808 7.95211617 0 0 Z " fill="#E49345" transform="translate(34,76)"/>
<path d="M0 0 C1.20446777 0.01047363 2.40893555 0.02094727 3.64990234 0.03173828 C5.60283203 0.04140625 5.60283203 0.04140625 7.59521484 0.05126953 C8.9754258 0.06798149 10.35563413 0.08491139 11.73583984 0.10205078 C13.12385436 0.11208072 14.51187574 0.12120655 15.89990234 0.12939453 C19.3037201 0.15303215 22.70719491 0.18598211 26.11083984 0.22705078 C28.08940886 3.8732654 30.06482711 7.52116704 32.03735352 11.1706543 C32.7086915 12.41168117 33.38088551 13.65224538 34.05395508 14.89233398 C35.02179293 16.67586986 35.98653043 18.46105218 36.95068359 20.24658203 C37.53197021 21.32012939 38.11325684 22.39367676 38.7121582 23.49975586 C40.11083984 26.22705078 40.11083984 26.22705078 41.11083984 29.22705078 C32.59929746 31.47734529 24.21797819 31.46211103 15.48583984 31.35205078 C14.08610671 31.34199476 12.68636653 31.33287357 11.28662109 31.32470703 C7.89451059 31.30131317 4.50276924 31.26853251 1.11083984 31.22705078 C0.67771484 30.11330078 0.24458984 28.99955078 -0.20166016 27.85205078 C-1.58827135 24.05192744 -1.58827135 24.05192744 -4.88916016 22.22705078 C-6.87885966 21.83691362 -8.87935885 21.49502429 -10.88916016 21.22705078 C-10.55440153 14.30870583 -8.59707412 0.67561931 0 0 Z " fill="#FDBE6B" transform="translate(62.88916015625,96.77294921875)"/>
<path d="M0 0 C4.38417408 2.19208704 5.50674952 9.58474112 7 14 C9.90714093 24.0643153 10.79035536 35.40035507 6 45 C4.48210324 47.37263474 3.04537412 49.00576023 1 51 C0.01 51 -0.98 51 -2 51 C-2.39832031 49.96939453 -2.39832031 49.96939453 -2.8046875 48.91796875 C-3.15789062 48.01691406 -3.51109375 47.11585937 -3.875 46.1875 C-4.22304687 45.29417969 -4.57109375 44.40085938 -4.9296875 43.48046875 C-5.98832155 40.82288409 -5.98832155 40.82288409 -8 38 C-8.99 38.2475 -8.99 38.2475 -10 38.5 C-13.73099794 39.12183299 -17.21873378 39.06408926 -21 39 C-21.33 37.35 -21.66 35.7 -22 34 C-18.25 31 -18.25 31 -16 31 C-15.06213918 25.94990405 -15.06213918 25.94990405 -16 21 C-15.34773438 20.40574219 -14.69546875 19.81148437 -14.0234375 19.19921875 C-7.854641 13.34887044 -3.60093364 7.69955731 0 0 Z " fill="#E39246" transform="translate(118,69)"/>
<path d="M0 0 C1.134375 0.020625 2.26875 0.04125 3.4375 0.0625 C6.92651845 7.24302459 7.98220737 13.1037201 7.4375 21.0625 C4.20890153 22.67679923 0.92756347 22.65820657 -2.5625 22.0625 C-5.58758145 20.32647895 -7.98040069 18.22669863 -9.5625 15.0625 C-9.98318924 12.00348826 -10.05278455 9.11491674 -9.5625 6.0625 C-7.125 3.0625 -7.125 3.0625 -4.5625 1.0625 C-3.5625 0.0625 -3.5625 0.0625 0 0 Z " fill="#FCFAF9" transform="translate(101.5625,34.9375)"/>
<path d="M0 0 C4.57793505 0.5182568 6.04473754 2.18323201 9.3125 5.375 C10.8672669 8.48453379 10.59894437 10.93766761 10.3125 14.375 C8.69929279 17.42857079 7.28189098 19.61333566 4.5625 21.75 C1.07585396 22.71851279 -2.0730096 22.55276182 -5.6875 22.375 C-7.36638427 20.69611573 -6.89915448 18.67573107 -6.9375 16.375 C-6.90142867 10.84887276 -6.69782856 0.93458073 0 0 Z " fill="#FBF9F6" transform="translate(48.6875,34.625)"/>
<path d="M0 0 C0.66 0.99 1.32 1.98 2 3 C6.54854894 3.2982655 10.56151204 3.10962199 15 2 C18.59586791 7.16048219 21.27472731 11.67976653 22 18 C20.625 21 20.625 21 18 23 C13.11622447 24.46513266 13.11622447 24.46513266 10 23 C6.72883644 18.96498185 4.37508903 14.62378751 2 10 C1.4225 8.9171875 0.845 7.834375 0.25 6.71875 C-1 4 -1 4 -0.6875 1.625 C-0.460625 1.08875 -0.23375 0.5525 0 0 Z " fill="#6289C6" transform="translate(95,104)"/>
<path d="M0 0 C3.09194322 -0.29240794 4.59815511 -0.2622862 7.23828125 1.4609375 C7.92277344 2.09257813 8.60726562 2.72421875 9.3125 3.375 C10.00988281 4.00148438 10.70726562 4.62796875 11.42578125 5.2734375 C13 7 13 7 13 9 C12.09636719 9.48210938 11.19273438 9.96421875 10.26171875 10.4609375 C9.07026983 11.09887865 7.87886594 11.7369039 6.6875 12.375 C6.09259766 12.69210937 5.49769531 13.00921875 4.88476562 13.3359375 C2.16634112 14.79386349 -0.43067554 16.28711703 -3 18 C-3.36517527 11.42684522 -2.13619737 6.20514474 0 0 Z " fill="#E39446" transform="translate(48,0)"/>
<path d="M0 0 C3.44419134 10.37357631 3.44419134 10.37357631 3 16 C-0.85659162 14.55377814 -4.47762994 12.78682503 -8.1328125 10.90234375 C-10.14664322 9.87997124 -10.14664322 9.87997124 -13 9 C-10.7776528 2.99966257 -6.31543061 -0.38600255 0 0 Z " fill="#E29448" transform="translate(101,0)"/>
<path d="M0 0 C-0.33 1.32 -0.66 2.64 -1 4 C-2.65 4.33 -4.3 4.66 -6 5 C-5.50452457 7.45631001 -5.50452457 7.45631001 -4 10 C-1.72037377 11.34776978 0.48087772 12.11364216 3 13 C3 13.99 3 14.98 3 16 C-0.11682122 15.56509471 -2.66938151 15.16530925 -5.5 13.75 C-9.1063394 12.66809818 -10.77572961 14.28496256 -14 16 C-16.375 15.6875 -16.375 15.6875 -18 15 C-15.47043472 11.9083091 -12.77545388 11.09068668 -9 10 C-9 8.35 -9 6.7 -9 5 C-10.65 4.67 -12.3 4.34 -14 4 C-14.33 3.01 -14.66 2.02 -15 1 C-13.95199219 1.01740234 -13.95199219 1.01740234 -12.8828125 1.03515625 C-11.97273438 1.04417969 -11.06265625 1.05320313 -10.125 1.0625 C-9.22007813 1.07410156 -8.31515625 1.08570313 -7.3828125 1.09765625 C-4.54785679 0.98146954 -2.920199 0 0 0 Z " fill="#9C6026" transform="translate(83,50)"/>
<path d="M0 0 C3.82524236 1.450954 5.19090966 3.38181932 7 7 C7 7.66 7 8.32 7 9 C2.71 9.66 -1.58 10.32 -6 11 C-6 6 -6 6 -4.6875 4.19921875 C-4.130625 3.70035156 -3.57375 3.20148438 -3 2.6875 C-2.443125 2.17574219 -1.88625 1.66398437 -1.3125 1.13671875 C-0.879375 0.76160156 -0.44625 0.38648437 0 0 Z " fill="#E19348" transform="translate(97,117)"/>
<path d="M0 0 C2.625 0.375 2.625 0.375 5 1 C5.625 3.375 5.625 3.375 6 6 C5.34 6.66 4.68 7.32 4 8 C1.375 7.625 1.375 7.625 -1 7 C-1.625 4.625 -1.625 4.625 -2 2 C-1.34 1.34 -0.68 0.68 0 0 Z " fill="#965E2A" transform="translate(97,45)"/>
<path d="M0 0 C0.04254356 1.99954746 0.04080783 4.00041636 0 6 C-1 7 -1 7 -3.5 7.125 C-6 7 -6 7 -7 6 C-7.04080783 4.00041636 -7.04254356 1.99954746 -7 0 C-4.3333581 -1.33332095 -2.83319697 -0.67102033 0 0 Z " fill="#975F2C" transform="translate(56,46)"/>
<path d="M0 0 C2.1519437 3.22791555 2.20086443 4.28400809 2 8 C0.68 7.67 -0.64 7.34 -2 7 C-2.6875 5.1875 -2.6875 5.1875 -3 3 C-1.5625 1.25 -1.5625 1.25 0 0 Z " fill="#FBB965" transform="translate(101,2)"/>
<path d="M0 0 C1.32 0.99 2.64 1.98 4 3 C3.67 4.32 3.34 5.64 3 7 C1.68 7.33 0.36 7.66 -1 8 C-0.67 5.36 -0.34 2.72 0 0 Z " fill="#FBB966" transform="translate(47,2)"/>
<path d="M0 0 C3.99881788 0.61520275 6.80358226 2.60268669 10 5 C10 5.66 10 6.32 10 7 C5.56541027 5.6062718 3.12621626 3.39417765 0 0 Z " fill="#FDD281" transform="translate(94,64)"/>
<path d="M0 0 C-1.28813342 0.83878455 -2.58063256 1.67086783 -3.875 2.5 C-4.59429687 2.9640625 -5.31359375 3.428125 -6.0546875 3.90625 C-8 5 -8 5 -10 5 C-9 2 -9 2 -6.125 0.25 C-3 -1 -3 -1 0 0 Z " fill="#FBCF81" transform="translate(54,62)"/>
<path d="M0 0 C0 0.66 0 1.32 0 2 C-2.97 3.65 -5.94 5.3 -9 7 C-6.72853261 2.45706522 -5.25384285 0 0 0 Z " fill="#FCD181" transform="translate(56,65)"/>
<path d="M0 0 C0.66 0 1.32 0 2 0 C1.67 2.64 1.34 5.28 1 8 C0.34 8 -0.32 8 -1 8 C-0.67 5.36 -0.34 2.72 0 0 Z " fill="#FDCE7D" transform="translate(88,26)"/>
</svg>
